<svg xmlns="http://www.w3.org/2000/svg" width="111" height="111" viewBox="0 0 111 111" fill="none">
<path d="M12.1404 55.4999C12.1404 54.12 12.6886 52.7966 13.6644 51.8208C14.6402 50.845 15.9636 50.2968 17.3436 50.2968L81.0818 50.2968L58.7431 27.9624C57.7656 26.9849 57.2165 25.6592 57.2165 24.2769C57.2165 22.8945 57.7656 21.5688 58.7431 20.5913C59.7206 19.6138 61.0463 19.0647 62.4286 19.0647C63.811 19.0647 65.1367 19.6138 66.1142 20.5913L97.3329 51.8101C97.818 52.2935 98.2029 52.8678 98.4655 53.5003C98.7281 54.1327 98.8633 54.8108 98.8633 55.4956C98.8633 56.1804 98.7281 56.8585 98.4655 57.4909C98.2029 58.1234 97.818 58.6978 97.3329 59.1812L66.1142 90.3999C65.6302 90.8839 65.0556 91.2678 64.4232 91.5298C63.7909 91.7917 63.1131 91.9265 62.4286 91.9265C61.7442 91.9265 61.0664 91.7917 60.434 91.5298C59.8017 91.2678 59.2271 90.8839 58.7431 90.3999C58.2591 89.9159 57.8752 89.3413 57.6132 88.709C57.3513 88.0766 57.2165 87.3988 57.2165 86.7144C57.2165 86.0299 57.3513 85.3521 57.6132 84.7198C57.8752 84.0874 58.2591 83.5128 58.7431 83.0288L81.0818 60.7031L17.3436 60.7031C15.9636 60.7031 14.6402 60.1549 13.6644 59.1791C12.6886 58.2033 12.1404 56.8799 12.1404 55.4999Z" fill="black"/>
</svg>