<svg width="386" height="386" viewBox="0 0 386 386" fill="none" xmlns="http://www.w3.org/2000/svg">
<path d="M215.87 142.12C230.45 150.283 247.305 151.408 267.168 148.682" stroke="black" stroke-width="4" stroke-linecap="round" stroke-linejoin="round"/>
<path d="M45.5158 283.147C53.7987 272.371 64.0921 262.963 76.3958 255.886C84.1962 251.302 92.7204 247.683 102.049 245.191C81.1404 222.352 70.3645 117.167 150.54 113.146H150.62C152.148 113.066 153.676 113.066 155.285 113.066C180.455 113.066 193 122.555 193 122.555C193 122.555 205.545 113.066 230.715 113.066C232.324 113.066 233.852 113.066 235.38 113.146H235.46C315.635 117.167 304.86 222.352 283.951 245.191C293.28 247.683 301.804 251.302 309.604 255.886C321.908 262.963 332.201 272.371 340.484 283.147" stroke="black" stroke-width="4" stroke-linecap="round" stroke-linejoin="round"/>
<path d="M170.13 142.12C155.55 150.283 138.695 151.408 118.832 148.682M171.207 179.796C171.207 179.796 173.402 170.001 167.854 164.356C167.854 164.356 160.568 167.902 157.641 175.743C167.307 181.476 179.064 182.12 193 182.12C206.936 182.12 218.693 181.476 228.351 175.743C225.44 167.902 218.146 164.348 218.146 164.348C212.598 170.001 214.793 179.796 214.793 179.796" stroke="black" stroke-width="4" stroke-linecap="round" stroke-linejoin="round"/>
<path d="M33.6946 260.309C54.04 250.498 76.3958 255.886 76.3958 255.886C76.3958 255.886 63.0467 216.643 72.6967 164.372C68.515 116.443 74.9483 100.762 80.1754 97.2238C85.6437 93.6051 119.821 95.7763 150.54 113.146H150.62C165.095 105.748 180.053 101.406 193 101.406C205.947 101.406 220.905 105.748 235.38 113.146H235.46C266.179 95.7763 300.356 93.6051 305.825 97.2238C311.052 100.762 317.485 116.443 313.303 164.372C322.953 216.643 309.604 255.886 309.604 255.886C309.604 255.886 331.96 250.498 352.305 260.309" stroke="black" stroke-width="4" stroke-linecap="round" stroke-linejoin="round"/>
<path d="M193 365.896C288.488 365.896 365.896 288.488 365.896 193C365.896 97.5124 288.488 20.1042 193 20.1042C97.5123 20.1042 20.1042 97.5124 20.1042 193C20.1042 288.488 97.5123 365.896 193 365.896Z" stroke="black" stroke-width="4" stroke-linecap="round" stroke-linejoin="round"/>
</svg>
