  <svg xmlns="http://www.w3.org/2000/svg" viewBox="0 0 271 271" fill="none">
                        <path d="M86.1057 214.26H184.577C186.408 214.21 188.185 214.877 189.53 216.12C190.875 217.363 191.681 219.083 191.775 220.912C191.869 222.741 191.244 224.534 190.033 225.908C188.823 227.282 187.123 228.129 185.297 228.266L184.577 228.3H86.1057C84.2751 228.35 82.4974 227.683 81.1524 226.44C79.8075 225.197 79.002 223.477 78.908 221.648C78.8139 219.819 79.4389 218.026 80.6493 216.652C81.8597 215.278 83.5596 214.431 85.3857 214.294L86.1057 214.26ZM52.3557 186.135H218.321C220.126 186.126 221.866 186.814 223.177 188.054C224.489 189.294 225.273 190.992 225.365 192.795C225.458 194.597 224.853 196.367 223.675 197.735C222.497 199.103 220.838 199.965 219.041 200.141L218.321 200.175H52.3613C50.5562 200.184 48.8171 199.496 47.5053 198.256C46.1936 197.016 45.41 195.318 45.3173 193.515C45.2246 191.713 45.83 189.943 47.0077 188.575C48.1853 187.207 49.8448 186.345 51.6413 186.169L52.3557 186.135ZM135.341 39.885C170.987 39.885 191.209 63.4819 194.151 91.9725H195.051C217.989 91.9725 236.586 110.524 236.586 133.401C236.586 156.278 217.989 174.829 195.051 174.829H75.6319C52.6876 174.829 34.0913 156.283 34.0913 133.401C34.0913 110.518 52.6876 91.9725 75.6263 91.9725H76.5263C79.4851 63.2906 99.6901 39.885 135.341 39.885ZM135.341 53.9194C111.373 53.9194 90.4819 73.3144 90.4819 100.101C90.4819 104.348 86.7919 107.683 82.5619 107.683H74.5744C59.9832 107.683 48.1538 119.569 48.1538 134.233C48.1538 148.903 59.9832 160.794 74.5744 160.794H196.108C210.699 160.794 222.529 148.903 222.529 134.239C222.529 119.574 210.699 107.678 196.108 107.678H188.121C183.891 107.678 180.201 104.348 180.201 100.106C180.201 72.9713 159.309 53.925 135.341 53.925" fill="black" />
                    </svg>