<svg xmlns="http://www.w3.org/2000/svg" width="87" height="97" viewBox="0 0 87 97" fill="none">
<path fill-rule="evenodd" clip-rule="evenodd" d="M2.61746 4.95775C24.0695 1.71499 34.8568 3.54167 39.8907 6.45552C42.3458 7.87664 43.3707 9.51689 43.7143 10.9334C44.0681 12.3916 43.7445 13.7941 43.194 14.7691C42.5142 15.973 41.4396 16.6556 40.075 17.0459C38.6708 17.4475 37.0701 17.5066 35.5001 17.5066C34.4655 17.5066 33.0921 17.8173 31.775 18.314C30.4434 18.8162 29.0015 19.5711 27.8814 20.5792C26.77 21.5795 25.7978 23.0025 25.9006 24.7881C26.0025 26.5598 27.1368 28.1972 29.0859 29.6958C30.0071 30.404 31.0536 31.1476 32.1197 31.9039L32.2052 31.9645C33.253 32.7077 34.3248 33.468 35.3659 34.2518C37.5295 35.8808 39.4286 37.5168 40.5898 39.1321C41.7335 40.7232 41.9835 42.0202 41.4478 43.2256C40.8429 44.5868 39.0574 46.2977 34.8946 48.1343C34.8101 48.1715 34.7293 48.2165 34.6531 48.2687C32.13 49.995 30.0204 52.1817 28.822 54.5829C27.6104 57.0107 27.3044 59.7388 28.598 62.3065C29.8663 64.8238 32.5262 66.8914 36.6003 68.3874C40.6843 69.887 46.3524 70.8763 53.9319 71.1302L68.9134 71.9975L68.9293 71.9983L81.5341 72.5944L60.1893 93.9393C59.6035 94.5251 59.6035 95.4749 60.1893 96.0606C60.775 96.6464 61.7248 96.6464 62.3106 96.0606L85.9717 72.3995C86.2769 72.1399 86.4781 71.7594 86.4985 71.3275C86.501 71.2753 86.5007 71.2236 86.4979 71.1725C86.4795 70.8148 86.3337 70.4625 86.0606 70.1893L62.3106 46.4393C61.7248 45.8535 60.775 45.8535 60.1893 46.4393C59.6035 47.0251 59.6035 47.9748 60.1893 48.5606L81.2041 69.5755L69.0868 69.0025L69.071 69.0017L54.0868 68.1341C54.0746 68.1334 54.0623 68.1329 54.0501 68.1325C46.6387 67.8854 41.3127 66.9219 37.6344 65.5712C33.9428 64.2157 32.0715 62.5332 31.2772 60.9567C30.5084 59.4308 30.6086 57.7214 31.5063 55.9226C32.4021 54.1277 34.0635 52.3294 36.236 50.8212C40.4963 48.9232 43.1248 46.8396 44.1893 44.4439C45.3339 41.8681 44.4878 39.415 43.0257 37.3811C41.581 35.3714 39.3648 33.5074 37.1703 31.8551C36.0946 31.0452 34.9923 30.2634 33.9537 29.5266L33.8555 29.457C32.7796 28.6938 31.7817 27.9842 30.9144 27.3174C29.2868 26.066 28.9259 25.141 28.8956 24.6158C28.8662 24.1045 29.1248 23.4962 29.8884 22.8091C30.6433 22.1296 31.7206 21.5408 32.8336 21.1211C33.9611 20.6959 34.9578 20.5066 35.5001 20.5066C37.0837 20.5066 39.056 20.4576 40.8999 19.9302C42.7834 19.3915 44.6319 18.3241 45.8063 16.2441C46.683 14.6914 47.1847 12.5135 46.6297 10.2261C46.0647 7.89712 44.447 5.62657 41.3936 3.85912C35.4104 0.395809 23.717 -1.2658 2.16907 1.99144C1.34995 2.11527 0.786295 2.87967 0.910116 3.69879C1.03394 4.51791 1.79834 5.08157 2.61746 4.95775Z" fill="black"/>
</svg>