<svg xmlns="http://www.w3.org/2000/svg" width="37" height="37" viewBox="0 0 66 65" fill="none">
                            <g clip-path="url(#clip0_75_257)">
                                <path d="M50.2102 0H15.3705C6.8816 0 0 6.82035 0 15.2337V49.7634C0 58.1767 6.8816 64.997 15.3705 64.997H50.2102C58.6991 64.997 65.5807 58.1767 65.5807 49.7634V15.2337C65.5807 6.82035 58.6991 0 50.2102 0Z" fill="#E14E1D" />
                                <path d="M12.2964 9.64795L14.5021 34.1724H42.8632L41.9115 44.6912L32.7799 47.1383L23.6654 44.6948L23.056 37.9407H14.8428L16.0173 50.9607L32.7781 55.5744L49.5601 50.9607L51.8101 26.0635H21.9859L21.2371 17.7586H52.5514L53.2843 9.64795H12.2964Z" fill="white" />
                                <path d="M32.7904 9.64795H12.2964L14.5021 34.1724H32.7904V26.0635H21.9859L21.2371 17.7586H32.7904V9.64795ZM32.7904 47.1347L32.7799 47.1383L23.6654 44.6948L23.056 37.9407H14.8428L16.0173 50.9607L32.7781 55.5744L32.7906 55.5709L32.7904 47.1347Z" fill="#EBEBEB" />
                            </g>
                            <defs>
                                <clipPath id="clip0_75_257">
                                    <rect width="65.5807" height="64.997" fill="white" />
                                </clipPath>
                            </defs>
                        </svg>