<svg xmlns="http://www.w3.org/2000/svg" width="371" height="371" viewBox="0 0 380 361" fill="none">
<path d="M51.184 347.588V291.379C51.184 271.255 45.9115 260.789 35.5565 243.293C22.9331 221.92 16.1874 197.589 16.0038 172.767C15.8203 147.946 22.2054 123.517 34.5114 101.96C46.8174 80.4025 64.6064 62.4838 86.0736 50.0215C107.541 37.5592 131.922 30.9968 156.745 31C194.065 31.0042 229.856 45.8294 256.249 72.216C282.642 98.6025 297.475 134.39 297.487 171.711C297.487 180.894 297.487 185.486 297.867 188.051C298.786 194.194 301.667 199.483 304.47 204.961L332.669 259.649L310.502 270.733C304.09 273.931 300.876 275.53 298.643 278.491C296.411 281.452 295.777 284.808 294.527 291.474L294.4 292.139C291.502 307.466 288.32 324.376 279.358 335.047C276.192 338.8 272.265 341.856 267.847 344.025C260.548 347.588 251.571 347.588 233.616 347.588C225.303 347.588 216.975 347.778 208.662 347.588C188.982 347.097 174.336 330.535 174.336 311.329" stroke="black" stroke-width="17" stroke-linecap="round" stroke-linejoin="round"/>
<path d="M212.146 166.09C205.401 166.09 199.242 163.525 194.571 159.329M212.146 166.09C212.146 184.235 201.632 201.462 181.397 201.462C161.162 201.462 150.649 218.688 150.649 236.833M212.146 166.09C246.187 166.09 246.187 113.033 212.146 113.033C209.042 113.043 206.103 113.544 203.327 114.537C204.989 74.985 147.973 64.25 135.053 101.3M135.053 101.3C144.474 107.649 150.649 118.448 150.649 130.703M135.053 101.3C105.73 81.5084 66.6532 117.023 85.2415 148.689C54.0498 153.36 57.3748 201.462 89.1523 201.462C93.3894 201.46 97.5631 200.434 101.318 198.471C105.073 196.508 108.298 193.666 110.717 190.188" stroke="black" stroke-width="17" stroke-linecap="round" stroke-linejoin="round"/>
</svg>