<svg xmlns="http://www.w3.org/2000/svg" width="2.9em" height="3.5em" viewBox="0 0 61 61" fill="none">
<g clip-path="url(#clip0_273_18)">
<path fill-rule="evenodd" clip-rule="evenodd" d="M30.3475 45.9025C29.6335 45.1877 29.2325 44.2186 29.2325 43.2083C29.2325 42.198 29.6335 41.229 30.3475 40.5142L40.3566 30.5L30.3424 20.4858C29.6483 19.7665 29.2644 18.8032 29.2736 17.8036C29.2827 16.804 29.6842 15.8479 30.3914 15.1414C31.0986 14.4349 32.055 14.0344 33.0546 14.0261C34.0542 14.0179 35.0171 14.4027 35.7358 15.0975L48.4442 27.8058C49.1581 28.5207 49.5591 29.4897 49.5591 30.5C49.5591 31.5103 49.1581 32.4793 48.4442 33.1942L35.7358 45.9025C35.3818 46.2568 34.9614 46.5378 34.4987 46.7296C34.036 46.9213 33.54 47.02 33.0391 47.02C32.5383 47.02 32.0423 46.9213 31.5796 46.7296C31.1169 46.5378 30.6965 46.2568 30.3424 45.9025H30.3475ZM15.0975 45.9025C14.3835 45.1877 13.9825 44.2186 13.9825 43.2083C13.9825 42.198 14.3835 41.229 15.0975 40.5142L25.1066 30.5L15.0924 20.4858C14.3983 19.7665 14.0144 18.8032 14.0236 17.8036C14.0327 16.804 14.4342 15.8479 15.1414 15.1414C15.8486 14.4349 16.805 14.0344 17.8046 14.0261C18.8042 14.0179 19.7671 14.4027 20.4858 15.0975L33.1942 27.8058C33.9081 28.5207 34.3091 29.4897 34.3091 30.5C34.3091 31.5103 33.9081 32.4793 33.1942 33.1942L20.4858 45.9025C20.1318 46.2568 19.7114 46.5378 19.2487 46.7296C18.786 46.9213 18.29 47.02 17.7891 47.02C17.2883 47.02 16.7923 46.9213 16.3296 46.7296C15.8669 46.5378 15.4465 46.2568 15.0924 45.9025H15.0975Z" fill="black"/>
</g>
<defs>
<clipPath id="clip0_273_18">
<rect width="61" height="61" fill="white" transform="matrix(-1 0 0 -1 61 61)"/>
</clipPath>
</defs>
</svg>