<svg xmlns="http://www.w3.org/2000/svg" width="37" height="37" viewBox="0 0 66 65" fill="none">
                            <g clip-path="url(#clip0_75_252)">
                                <path d="M50.2102 0H15.3705C6.8816 0 0 6.82035 0 15.2337V49.7634C0 58.1767 6.8816 64.997 15.3705 64.997H50.2102C58.6991 64.997 65.5807 58.1767 65.5807 49.7634V15.2337C65.5807 6.82035 58.6991 0 50.2102 0Z" fill="#F0DB4F" />
                                <path d="M17.2437 54.3163L22.2621 51.3061C23.2305 53.0075 24.1112 54.447 26.2239 54.447C28.2489 54.447 29.5257 53.662 29.5257 50.6082V29.8401H35.6888V50.6945C35.6888 57.0208 31.9471 59.9004 26.488 59.9004C21.5579 59.9004 18.6962 57.3699 17.2434 54.3158M39.0362 53.6617L44.0541 50.7823C45.3752 52.9204 47.0921 54.491 50.1293 54.491C52.6831 54.491 54.3114 53.2256 54.3114 51.4803C54.3114 49.3862 52.6386 48.6443 49.8211 47.423L48.2808 46.7683C43.8343 44.8925 40.8847 42.5363 40.8847 37.5625C40.8847 32.9813 44.4066 29.4907 49.9095 29.4907C53.8275 29.4907 56.6449 30.8435 58.6697 34.3774L53.8713 37.4315C52.8146 35.5555 51.6705 34.8139 49.9095 34.8139C48.1045 34.8139 46.9599 35.9483 46.9599 37.4315C46.9599 39.2639 48.1045 40.0058 50.7457 41.1404L52.2863 41.7947C57.5248 44.0201 60.4744 46.2884 60.4744 51.3929C60.4744 56.8908 56.1164 59.9009 50.2615 59.9009C44.5388 59.9009 40.8409 57.196 39.0362 53.6617Z" fill="#323330" />
                            </g>
                            </svg>