<svg xmlns="http://www.w3.org/2000/svg" width="403" height="403" viewBox="0 0 348 348" fill="none">
<g clip-path="url(#clip0_17_12)">
<mask id="mask0_17_12" style="mask-type:luminance" maskUnits="userSpaceOnUse" x="0" y="0" width="348" height="348">
<path d="M174 348C270.098 348 348 270.098 348 174C348 77.9025 270.098 0 174 0C77.9025 0 0 77.9025 0 174C0 270.098 77.9025 348 174 348Z" fill="white"/>
</mask>
<g mask="url(#mask0_17_12)">
<path d="M0 0H348V348H0V0Z" fill="#333333"/>
<path d="M250.125 74.086C243.328 73.4064 237.891 78.8439 237.891 85.6407C237.891 89.0392 239.25 93.1173 241.969 95.1564L230.414 106.711L241.969 117.586L252.844 106.031C255.562 108.75 258.961 110.109 262.359 110.109C269.156 110.109 274.594 104.672 273.914 97.8751C274.594 91.0782 269.156 85.6407 262.359 85.6407C262.359 78.8439 256.922 73.4064 250.125 74.086ZM239.25 227.695L227.695 238.57L241.969 252.844C239.25 255.563 237.891 258.961 237.891 262.359C237.891 269.156 243.328 274.594 250.125 273.914C256.922 274.594 262.359 269.156 262.359 262.359C269.156 262.359 274.594 256.922 273.914 250.125C274.594 243.328 269.156 237.891 262.359 237.891C258.961 237.891 255.562 239.25 252.844 241.969L239.25 227.695ZM174 101.953C133.898 101.953 101.953 134.578 101.953 174V201.867C101.953 201.867 111.469 207.305 126.422 221.578C140.695 236.531 146.133 246.047 146.133 246.047H201.867C201.867 246.047 207.305 236.531 221.578 221.578C236.531 207.305 246.047 201.867 246.047 201.867V174C246.047 134.578 214.102 101.953 174 101.953Z" fill="#EEEEEE"/>
<path d="M140.016 205.945C153.267 205.945 164.009 195.203 164.009 181.952C164.009 168.702 153.267 157.959 140.016 157.959C126.765 157.959 116.023 168.702 116.023 181.952C116.023 195.203 126.765 205.945 140.016 205.945Z" fill="#333333"/>
<path d="M207.984 205.945C221.235 205.945 231.977 195.203 231.977 181.952C231.977 168.702 221.235 157.959 207.984 157.959C194.733 157.959 183.991 168.702 183.991 181.952C183.991 195.203 194.733 205.945 207.984 205.945Z" fill="#333333"/>
<path d="M97.875 74.086C104.672 73.4064 110.109 78.8439 110.109 85.6407C110.109 89.0392 108.75 93.1173 106.031 95.1564L117.586 106.711L106.031 117.586L95.1562 106.031C92.4375 108.75 89.0391 110.109 85.6406 110.109C78.8437 110.109 73.4062 104.672 74.0859 97.8751C73.4062 91.0782 78.8437 85.6407 85.6406 85.6407C85.6406 78.8439 91.0781 73.4064 97.875 74.086ZM108.75 227.695L120.305 238.57L106.031 252.844C108.75 255.563 110.109 258.961 110.109 262.359C110.109 269.156 104.672 274.594 97.875 273.914C91.0781 274.594 85.6406 269.156 85.6406 262.359C78.8437 262.359 73.4062 256.922 74.0859 250.125C73.4062 243.328 78.8437 237.891 85.6406 237.891C89.0391 237.891 92.4375 239.25 95.1562 241.969L108.75 227.695Z" fill="#EEEEEE"/>
<path d="M174 199.148C173.037 199.14 172.089 199.387 171.254 199.865C170.418 200.342 169.724 201.033 169.242 201.867L160.406 215.461C159.927 216.291 159.676 217.233 159.678 218.192C159.68 219.151 159.935 220.092 160.418 220.92C160.901 221.748 161.595 222.433 162.428 222.907C163.262 223.381 164.205 223.626 165.164 223.617H182.836C183.795 223.626 184.738 223.381 185.572 222.907C186.405 222.433 187.099 221.748 187.582 220.92C188.065 220.092 188.32 219.151 188.322 218.192C188.324 217.233 188.073 216.291 187.594 215.461L178.758 201.867C178.276 201.033 177.582 200.342 176.746 199.865C175.91 199.387 174.963 199.14 174 199.148Z" fill="#333333"/>
</g>
</g>
<defs>
<clipPath id="clip0_17_12">
<rect width="348" height="348" fill="white"/>
</clipPath>
</defs>
</svg>
