<svg xmlns="http://www.w3.org/2000/svg" width="92" height="76" viewBox="0 0 92 76" fill="none">
                <path d="M0.5718 38.3402C0.5718 46.1278 6.90922 52.4652 14.6968 52.4652H37.1273C32.306 57.8469 32.5178 66.708 37.6688 71.8683C40.3188 74.514 43.9105 76 47.6551 76C51.3998 76 54.9915 74.514 57.6415 71.8683L91.1696 38.3402L57.6415 4.81219C54.9915 2.16647 51.3998 0.680481 47.6551 0.680481C43.9105 0.680481 40.3188 2.16647 37.6688 4.81219C32.5131 9.96311 32.3013 18.8383 37.1273 24.2152H14.6968C6.90922 24.2152 0.5718 30.5527 0.5718 38.3402ZM59.8309 43.0486L14.6968 43.0486C13.4845 42.9943 12.3398 42.4746 11.5011 41.5976C10.6624 40.7205 10.1944 39.5538 10.1944 38.3402C10.1944 37.1267 10.6624 35.96 11.5011 35.0829C12.3398 34.2059 13.4845 33.6861 14.6968 33.6319L59.8309 33.6319L44.3263 18.1274C43.4693 17.2311 42.991 16.0387 42.991 14.7986C42.991 13.5584 43.4693 12.3661 44.3263 11.4698C44.7632 11.0322 45.2821 10.685 45.8533 10.4481C46.4245 10.2112 47.0368 10.0893 47.6551 10.0893C48.2735 10.0893 48.8858 10.2112 49.457 10.4481C50.0282 10.685 50.5471 11.0322 50.9839 11.4698L77.8544 38.3402L50.9839 65.2107C50.5471 65.6483 50.0282 65.9955 49.457 66.2324C48.8858 66.4693 48.2735 66.5912 47.6551 66.5912C47.0368 66.5912 46.4245 66.4693 45.8533 66.2324C45.2821 65.9955 44.7632 65.6483 44.3263 65.2107C43.4693 64.3144 42.991 63.122 42.991 61.8819C42.991 60.6418 43.4693 59.4494 44.3263 58.5531L59.8309 43.0486Z" fill="black" />
            </svg>