<svg xmlns="http://www.w3.org/2000/svg" width="37" height="37" viewBox="0 0 66 65" fill="none">
                            <g clip-path="url(#clip0_75_264)">
                                <path d="M50.2102 0H15.3705C6.8816 0 0 6.82035 0 15.2337V49.7634C0 58.1767 6.8816 64.997 15.3705 64.997H50.2102C58.6991 64.997 65.5807 58.1767 65.5807 49.7634V15.2337C65.5807 6.82035 58.6991 0 50.2102 0Z" fill="#0277BD" />
                                <path d="M13.7702 26.0625L14.5033 34.1724H32.815V26.0625H13.7702ZM32.8147 9.64795H12.2964L13.0403 17.7579H32.8147V9.64795ZM32.8147 55.5625V47.1248L32.7788 47.1342L23.6657 44.6956L23.0831 38.2273H14.8689L16.0153 50.9612L32.7771 55.5729L32.8147 55.5625Z" fill="#EBEBEB" />
                                <path d="M43.0761 34.5244L42.1262 45.0423L33 47.4837V55.9209L49.7751 51.3132L49.8981 49.943L51.8209 28.5925L52.0205 26.4145L53.4978 10H33V18.1099H44.5302L43.7857 26.4145H33V34.5244H43.0761Z" fill="white" />
                            </g>
                            <defs>
                                <clipPath id="clip0_75_264">
                                    <rect width="65.5807" height="64.997" fill="white" />
                                </clipPath>
                            </defs>
                        </svg>