<svg xmlns="http://www.w3.org/2000/svg" width="37" height="37" viewBox="0 0 66 65" fill="none">
<g clip-path="url(#clip0_75_287)">
<path d="M50.2097 0H15.3703C6.88152 0 0 6.82066 0 15.2344V49.7656C0 58.1793 6.88152 65 15.3703 65H50.2097C58.6985 65 65.58 58.1793 65.58 49.7656V15.2344C65.58 6.82066 58.6985 0 50.2097 0Z" fill="#242938"/>
<path d="M32.7904 37.3119C35.43 37.3119 37.5695 35.191 37.5695 32.575C37.5695 29.959 35.43 27.8381 32.7904 27.8381C30.151 27.8381 28.0112 29.959 28.0112 32.575C28.0112 35.191 30.151 37.3119 32.7904 37.3119Z" fill="#00D8FF"/>
<path d="M32.7906 22.9438C39.2071 22.9438 45.168 23.8564 49.6625 25.3902C55.0778 27.2379 58.4072 30.0387 58.4072 32.575C58.4072 35.2179 54.8787 38.1935 49.0634 40.1031C44.6669 41.5468 38.8816 42.3004 32.7906 42.3004C26.5456 42.3004 20.6319 41.593 16.1857 40.0871C10.5607 38.1815 7.17285 35.1677 7.17285 32.575C7.17285 30.0593 10.3519 27.2801 15.6911 25.4352C20.2023 23.8762 26.3102 22.9438 32.7895 22.9438H32.7906Z" stroke="#00D8FF" stroke-width="3"/>
<path d="M24.3314 27.787C27.5371 22.2777 31.3123 17.6155 34.8982 14.5229C39.2183 10.7963 43.3298 9.33689 45.5462 10.6036C47.8561 11.9239 48.6941 16.4404 47.458 22.3874C46.5243 26.8833 44.292 32.227 41.249 37.457C38.129 42.819 34.5567 47.5432 31.0198 50.6073C26.5442 54.485 22.2172 55.8883 19.9513 54.5931C17.7526 53.3373 16.9119 49.2187 17.9668 43.7127C18.858 39.0604 21.0946 33.3503 24.3303 27.787H24.3314Z" stroke="#00D8FF" stroke-width="3"/>
<path d="M24.3394 37.4711C21.1247 31.9679 18.936 26.3967 18.0225 21.7731C16.9227 16.2021 17.7002 11.9428 19.9148 10.6723C22.2227 9.3479 26.5886 10.884 31.1695 14.9156C34.6329 17.9634 38.1893 22.5482 41.2411 27.7731C44.37 33.13 46.715 38.5573 47.6272 43.1245C48.7815 48.9045 47.8473 53.3206 45.5835 54.6194C43.3871 55.8798 39.3675 54.5455 35.0815 50.8898C31.4602 47.8012 27.5859 43.0291 24.3394 37.4711Z" stroke="#00D8FF" stroke-width="3"/>
</g>
<defs>
<clipPath id="clip0_75_287">
<rect width="65.58" height="65" fill="white"/>
</clipPath>
</defs>
</svg>