<svg xmlns="http://www.w3.org/2000/svg" width="37" height="37" viewBox="0 0 67 65" fill="none">
<g clip-path="url(#clip0_75_283)">
<path d="M33.332 13.001C24.5985 13.001 19.1421 17.3326 16.957 25.9995C20.231 21.6673 24.053 20.0428 28.4185 21.126C30.9111 21.7425 32.6924 23.5361 34.6651 25.5236C37.8756 28.7569 41.5917 32.5 49.707 32.5C58.44 32.5 63.897 28.1678 66.082 19.4989C62.807 23.8333 58.9864 25.4586 54.62 24.375C52.128 23.758 50.3487 21.9649 48.3735 19.9773C45.165 16.7441 41.4499 13.001 33.332 13.001ZM16.957 32.5C8.22404 32.5 2.76707 36.8321 0.582031 45.501C3.85669 41.1666 7.67718 39.5413 12.0435 40.625C14.5361 41.242 16.3174 43.035 18.2901 45.0226C21.5006 48.2559 25.2167 51.9989 33.332 51.9989C42.065 51.9989 47.522 47.6673 49.707 39.0005C46.432 43.3328 42.6114 44.9573 38.245 43.8739C35.753 43.2575 33.9737 41.4639 31.9985 39.4763C28.79 36.243 25.0749 32.5 16.957 32.5Z" fill="#38BDF8"/>
</g>
<defs>
<clipPath id="clip0_75_283">
<rect width="65.5" height="65" fill="white" transform="translate(0.580078)"/>
</clipPath>
</defs>
</svg>