<svg xmlns="http://www.w3.org/2000/svg" width="37" height="37" viewBox="0 0 66 65" fill="none">
<g clip-path="url(#clip0_75_332)">
<path d="M50.3098 0H15.5129C7.03451 0 0.161377 6.82066 0.161377 15.2344V49.7656C0.161377 58.1793 7.03451 65 15.5129 65H50.3098C58.7882 65 65.6614 58.1793 65.6614 49.7656V15.2344C65.6614 6.82066 58.7882 0 50.3098 0Z" fill="#F03C2E"/>
<mask id="mask0_75_332" style="mask-type:luminance" maskUnits="userSpaceOnUse" x="7" y="7" width="52" height="51">
<path d="M7.32544 7.10938H58.4973V57.8906H7.32544V7.10938Z" fill="white"/>
</mask>
<g mask="url(#mask0_75_332)">
<path d="M57.5314 30.2389L35.19 8.06804C34.7294 7.61039 34.1423 7.2987 33.503 7.17246C32.8638 7.04622 32.2011 7.11109 31.5991 7.35888C31.1993 7.52328 30.8362 7.76426 30.5303 8.06804L25.8929 12.6701L31.7776 18.5099C33.1465 18.0339 34.7136 18.3591 35.8041 19.4415C36.3232 19.9576 36.6856 20.6082 36.8499 21.319C37.0142 22.0298 36.9737 22.7721 36.7331 23.4611L42.4053 29.09C43.7774 28.6202 45.3604 28.9231 46.4558 30.0134C47.0044 30.5577 47.3781 31.2512 47.5293 32.0063C47.6806 32.7614 47.6027 33.544 47.3055 34.2552C46.9071 35.2086 46.1434 35.966 45.1825 36.3608C44.2215 36.7557 43.1419 36.7557 42.1809 36.3608C41.705 36.1651 41.2726 35.8784 40.9085 35.5168C39.7571 34.3742 39.4726 32.6921 40.0547 31.2845L34.7648 26.035V39.8492C35.1488 40.0378 35.4997 40.2864 35.8041 40.5856C36.5395 41.3154 36.9527 42.3052 36.9527 43.3373C36.9527 44.3694 36.5395 45.3592 35.8041 46.089C35.0687 46.8188 34.0713 47.2288 33.0312 47.2288C31.9912 47.2288 30.9938 46.8188 30.2583 46.089C29.7095 45.545 29.3356 44.8516 29.1841 44.0965C29.0326 43.3415 29.1103 42.5589 29.4074 41.8477C29.6046 41.3755 29.8938 40.9466 30.2583 40.5856C30.6373 40.211 31.0579 39.9269 31.5425 39.7365V25.7937C31.0617 25.5987 30.625 25.3101 30.2583 24.9449C29.7078 24.3991 29.3334 23.703 29.1831 22.9452C29.0327 22.1875 29.1131 21.4025 29.414 20.6902L23.6093 14.9334L8.28975 30.12C7.82857 30.5774 7.51445 31.1602 7.38715 31.7948C7.25986 32.4294 7.3251 33.0871 7.57463 33.6849C7.74045 34.0818 7.98345 34.4423 8.28975 34.746L30.6327 56.915C30.9386 57.2187 31.3017 57.4597 31.7014 57.6242C32.5089 57.9559 33.4161 57.9559 34.2237 57.6242C34.6233 57.4597 34.9865 57.2187 35.2924 56.915L57.5314 34.8808C57.8376 34.5771 58.0805 34.2166 58.2463 33.8197C58.4121 33.4229 58.4975 32.9975 58.4976 32.568C58.4976 32.1383 58.4123 31.7129 58.2465 31.316C58.0807 30.9191 57.8377 30.5585 57.5314 30.2549" fill="white"/>
</g>
</g>
<defs>
<clipPath id="clip0_75_332">
<rect width="65.5" height="65" fill="white" transform="translate(0.161377)"/>
</clipPath>
</defs>
</svg>