<svg xmlns="http://www.w3.org/2000/svg" width="91" height="76" viewBox="0 0 91 76" fill="none">
                <path d="M90.5978 37.6598C90.5978 29.8722 84.2603 23.5348 76.4728 23.5348H54.0423C58.8636 18.1531 58.6517 9.29205 53.5008 4.13172C50.8507 1.48599 47.2591 0 43.5144 0C39.7697 0 36.1781 1.48599 33.528 4.13172L0 37.6598L33.528 71.1878C36.1781 73.8335 39.7697 75.3195 43.5144 75.3195C47.2591 75.3195 50.8507 73.8335 53.5008 71.1878C58.6564 66.0369 58.8683 57.1617 54.0423 51.7848H76.4728C84.2603 51.7848 90.5978 45.4473 90.5978 37.6598ZM31.3387 32.9514H76.4728C77.6851 33.0057 78.8297 33.5254 79.6684 34.4024C80.5071 35.2795 80.9752 36.4462 80.9752 37.6598C80.9752 38.8733 80.5071 40.04 79.6684 40.9171C78.8297 41.7941 77.6851 42.3139 76.4728 42.3681H31.3387L46.8432 57.8726C47.7003 58.7689 48.1786 59.9613 48.1786 61.2014C48.1786 62.4416 47.7003 63.6339 46.8432 64.5302C46.4063 64.9678 45.8875 65.315 45.3163 65.5519C44.7451 65.7888 44.1328 65.9107 43.5144 65.9107C42.8961 65.9107 42.2838 65.7888 41.7126 65.5519C41.1414 65.315 40.6225 64.9678 40.1856 64.5302L13.3152 37.6598L40.1856 10.7893C40.6225 10.3517 41.1414 10.0045 41.7126 9.76762C42.2838 9.53074 42.8961 9.40881 43.5144 9.40881C44.1328 9.40881 44.7451 9.53074 45.3163 9.76762C45.8875 10.0045 46.4063 10.3517 46.8432 10.7893C47.7003 11.6856 48.1786 12.878 48.1786 14.1181C48.1786 15.3582 47.7003 16.5506 46.8432 17.4469L31.3387 32.9514Z" fill="black" />
            </svg>