<svg xmlns="http://www.w3.org/2000/svg" width="111" height="111" viewBox="0 0 111 111" fill="none">
<path d="M98.8596 55.5001C98.8596 56.88 98.3114 58.2034 97.3356 59.1792C96.3598 60.155 95.0364 60.7032 93.6564 60.7032H29.9182L52.2569 83.0376C53.2344 84.0151 53.7835 85.3408 53.7835 86.7231C53.7835 88.1055 53.2344 89.4312 52.2569 90.4087C51.2794 91.3862 49.9537 91.9353 48.5714 91.9353C47.189 91.9353 45.8633 91.3862 44.8858 90.4087L13.6671 59.1899C13.182 58.7065 12.7971 58.1322 12.5345 57.4997C12.2719 56.8673 12.1367 56.1892 12.1367 55.5044C12.1367 54.8196 12.2719 54.1415 12.5345 53.5091C12.7971 52.8766 13.182 52.3022 13.6671 51.8188L44.8858 20.6001C45.3698 20.1161 45.9444 19.7322 46.5768 19.4702C47.2091 19.2083 47.8869 19.0735 48.5714 19.0735C49.2558 19.0735 49.9336 19.2083 50.566 19.4702C51.1983 19.7322 51.7729 20.1161 52.2569 20.6001C52.7409 21.0841 53.1248 21.6587 53.3868 22.291C53.6487 22.9234 53.7835 23.6012 53.7835 24.2856C53.7835 24.9701 53.6487 25.6479 53.3868 26.2802C53.1248 26.9126 52.7409 27.4872 52.2569 27.9712L29.9182 50.2969H93.6564C95.0364 50.2969 96.3598 50.8451 97.3356 51.8209C98.3114 52.7967 98.8596 54.1201 98.8596 55.5001Z" fill="black"/>
</svg>